<svg width="421" height="350" viewBox="0 0 421 350" fill="none" xmlns="http://www.w3.org/2000/svg">
<mask id="mask0_421_20826" style="mask-type:luminance" maskUnits="userSpaceOnUse" x="72" y="82" width="267" height="192">
<path d="M153.677 273.976H72.8926V82.8867H153.677V273.976ZM245.974 82.8867H165.189V273.976H245.974V82.8867ZM338.279 82.8867H257.502V273.976H338.287L338.279 82.8867Z" fill="white"/>
</mask>
<g mask="url(#mask0_421_20826)">
<path d="M250.047 119.291V120.519H250.771C250.535 120.115 250.308 119.703 250.047 119.291Z" fill="white"/>
<g opacity="0.2">
<path d="M178.873 120.41C175.987 118.836 174.665 120.149 173.63 118.836C172.595 117.523 176.508 114.115 168.649 110.716C168.649 110.716 168.127 103.378 157.381 103.142C146.635 102.906 149.521 110.472 146.643 112.306C143.765 114.141 142.974 111.263 140.088 113.097C137.202 114.932 138.514 118.601 136.158 119.122C133.802 119.644 130.655 116.766 127.743 118.601C124.831 120.435 124.857 122.009 123.536 122.009C122.214 122.009 119.606 120.957 118.032 122.009C116.458 123.061 114.666 124.365 114.666 124.365H180.96C180.96 124.365 181.768 121.983 178.873 120.41Z" fill="#393184"/>
</g>
<g opacity="0.2">
<path d="M365.713 150.435C362.826 148.861 361.505 150.174 360.47 148.861C359.435 147.548 363.348 144.149 355.489 140.741C355.489 140.741 354.967 133.403 344.221 133.167C333.475 132.931 336.361 140.505 333.483 142.339C330.605 144.174 329.814 141.288 326.928 143.122C324.041 144.956 325.354 148.625 322.998 149.147C320.642 149.669 317.494 146.791 314.583 148.625C311.671 150.46 311.696 152.034 310.375 152.034C309.054 152.034 306.446 150.982 304.872 152.034C303.298 153.085 301.506 154.39 301.506 154.39H367.8C367.8 154.39 368.582 152.008 365.713 150.435Z" fill="#393184"/>
</g>
<g opacity="0.2">
<path d="M193.447 149.913C191.647 148.928 190.83 149.745 190.174 148.928C189.518 148.112 191.975 145.983 187.069 143.879C187.069 143.879 186.741 139.293 180.034 139.133C173.327 138.973 175.128 143.711 173.302 144.856C171.476 146 171.013 144.199 169.212 145.352C167.411 146.505 168.227 148.785 166.763 149.114C165.299 149.442 163.321 147.641 161.529 148.785C159.737 149.93 159.728 150.906 158.912 150.906C158.096 150.906 156.455 150.258 155.47 150.906C154.486 151.554 153.35 152.379 153.35 152.379H194.727C194.727 152.379 195.231 150.889 193.447 149.913Z" fill="#393184"/>
</g>
<path opacity="0.1" d="M31.0195 280.776V210.703H72.632V126.662H100.654V145.108H116.348V199.427H154.452V169.705H172.384V186.098H185.579H191.495L191.966 192.258H207.45V167.66H219.778V90.7972H250.039V120.511H272.456V83.0806H297.112V174.83H322.896V208.65H340.896V282.282" fill="black"/>
<path opacity="0.1" d="M83.6467 144.864H77.5879V151.428H83.6467V144.864Z" fill="black"/>
<path opacity="0.1" d="M96.2776 144.864H90.2188V151.428H96.2776V144.864Z" fill="black"/>
<path opacity="0.1" d="M83.6467 158.547H77.5879V165.111H83.6467V158.547Z" fill="black"/>
<path opacity="0.1" d="M96.2776 158.547H90.2188V165.111H96.2776V158.547Z" fill="black"/>
<path opacity="0.1" d="M109.91 158.547H103.852V165.111H109.91V158.547Z" fill="black"/>
<path opacity="0.1" d="M109.91 172.23H103.852V178.794H109.91V172.23Z" fill="black"/>
<path opacity="0.1" d="M109.91 185.913H103.852V192.476H109.91V185.913Z" fill="black"/>
<path opacity="0.1" d="M109.91 199.596H103.852V206.159H109.91V199.596Z" fill="black"/>
<path opacity="0.1" d="M109.91 213.278H103.852V219.842H109.91V213.278Z" fill="black"/>
<path opacity="0.1" d="M109.91 226.961H103.852V233.525H109.91V226.961Z" fill="black"/>
<path opacity="0.1" d="M83.6467 172.23H77.5879V178.794H83.6467V172.23Z" fill="black"/>
<path opacity="0.1" d="M96.2776 172.23H90.2188V178.794H96.2776V172.23Z" fill="black"/>
<path opacity="0.1" d="M83.6467 185.913H77.5879V192.476H83.6467V185.913Z" fill="black"/>
<path opacity="0.1" d="M96.2776 185.913H90.2188V192.476H96.2776V185.913Z" fill="black"/>
<path opacity="0.1" d="M83.6467 199.596H77.5879V206.159H83.6467V199.596Z" fill="black"/>
<path opacity="0.1" d="M96.2776 199.596H90.2188V206.159H96.2776V199.596Z" fill="black"/>
<path opacity="0.1" d="M83.6467 213.278H77.5879V219.842H83.6467V213.278Z" fill="black"/>
<path opacity="0.1" d="M143.244 206.16H137.186V212.723H143.244V206.16Z" fill="black"/>
<path opacity="0.1" d="M155.369 206.16H149.311V212.723H155.369V206.16Z" fill="black"/>
<path opacity="0.1" d="M282.545 99.9863H276.486V106.55H282.545V99.9863Z" fill="black"/>
<path opacity="0.1" d="M290.127 99.9863H284.068V106.55H290.127V99.9863Z" fill="black"/>
<path opacity="0.1" d="M282.545 113.669H276.486V120.233H282.545V113.669Z" fill="black"/>
<path opacity="0.1" d="M290.127 113.669H284.068V120.233H290.127V113.669Z" fill="black"/>
<path opacity="0.1" d="M282.545 127.353H276.486V133.916H282.545V127.353Z" fill="black"/>
<path opacity="0.1" d="M290.127 127.352H284.068V133.916H290.127V127.352Z" fill="black"/>
<path opacity="0.1" d="M282.545 141.035H276.486V147.599H282.545V141.035Z" fill="black"/>
<path opacity="0.1" d="M290.127 141.035H284.068V147.599H290.127V141.035Z" fill="black"/>
<path opacity="0.1" d="M282.545 154.718H276.486V161.282H282.545V154.718Z" fill="black"/>
<path opacity="0.1" d="M290.127 154.718H284.068V161.282H290.127V154.718Z" fill="black"/>
<path opacity="0.1" d="M231.037 154.718H224.979V161.282H231.037V154.718Z" fill="black"/>
<path opacity="0.1" d="M244.164 154.718H238.105V161.282H244.164V154.718Z" fill="black"/>
<path opacity="0.1" d="M257.301 154.718H251.242V161.282H257.301V154.718Z" fill="black"/>
<path opacity="0.1" d="M231.037 184.271H224.979V190.835H231.037V184.271Z" fill="black"/>
<path opacity="0.1" d="M244.164 184.271H238.105V190.835H244.164V184.271Z" fill="black"/>
<path opacity="0.1" d="M257.301 184.271H251.242V190.835H257.301V184.271Z" fill="black"/>
<path opacity="0.1" d="M231.037 213.826H224.979V220.389H231.037V213.826Z" fill="black"/>
<path opacity="0.1" d="M244.164 213.826H238.105V220.389H244.164V213.826Z" fill="black"/>
<path opacity="0.1" d="M257.301 213.826H251.242V220.389H257.301V213.826Z" fill="black"/>
<path opacity="0.1" d="M282.545 168.401H276.486V174.965H282.545V168.401Z" fill="black"/>
<path opacity="0.1" d="M290.127 168.401H284.068V174.965H290.127V168.401Z" fill="black"/>
<path opacity="0.1" d="M282.545 182.084H276.486V188.648H282.545V182.084Z" fill="black"/>
<path opacity="0.1" d="M290.127 182.084H284.068V188.648H290.127V182.084Z" fill="black"/>
<path opacity="0.1" d="M282.545 195.767H276.486V202.33H282.545V195.767Z" fill="black"/>
<path opacity="0.1" d="M290.127 195.767H284.068V202.33H290.127V195.767Z" fill="black"/>
<path opacity="0.1" d="M302.75 182.084H296.691V188.648H302.75V182.084Z" fill="black"/>
<path opacity="0.1" d="M316.897 182.084H310.838V188.648H316.897V182.084Z" fill="black"/>
<path opacity="0.1" d="M302.75 195.22H296.691V201.783H302.75V195.22Z" fill="black"/>
<path opacity="0.1" d="M316.897 195.22H310.838V201.783H316.897V195.22Z" fill="black"/>
<path opacity="0.1" d="M302.75 208.347H296.691V214.911H302.75V208.347Z" fill="black"/>
<path opacity="0.1" d="M316.897 208.347H310.838V214.911H316.897V208.347Z" fill="black"/>
<path opacity="0.1" d="M302.75 221.483H296.691V228.047H302.75V221.483Z" fill="black"/>
<path opacity="0.1" d="M316.897 221.483H310.838V228.047H316.897V221.483Z" fill="black"/>
<path opacity="0.1" d="M282.545 209.441H276.486V216.005H282.545V209.441Z" fill="black"/>
<path opacity="0.1" d="M290.127 209.441H284.068V216.005H290.127V209.441Z" fill="black"/>
<path opacity="0.1" d="M282.545 223.124H276.486V229.688H282.545V223.124Z" fill="black"/>
<path opacity="0.1" d="M290.127 223.124H284.068V229.688H290.127V223.124Z" fill="black"/>
<path opacity="0.1" d="M96.2776 213.278H90.2188V219.842H96.2776V213.278Z" fill="black"/>
<path opacity="0.1" d="M83.6467 226.961H77.5879V233.525H83.6467V226.961Z" fill="black"/>
<path opacity="0.1" d="M96.2776 226.961H90.2188V233.525H96.2776V226.961Z" fill="black"/>
<path opacity="0.1" d="M83.6467 240.645H77.5879V247.208H83.6467V240.645Z" fill="black"/>
<path opacity="0.1" d="M96.2776 240.645H90.2188V247.208H96.2776V240.645Z" fill="black"/>
<path opacity="0.1" d="M83.6467 254.319H77.5879V260.883H83.6467V254.319Z" fill="black"/>
<path opacity="0.1" d="M96.2776 254.319H90.2188V260.883H96.2776V254.319Z" fill="black"/>
</g>
<path d="M153.677 273.976H72.8926V82.8867H153.677V273.976ZM245.974 82.8867H165.189V273.976H245.974V82.8867ZM338.279 82.8867H257.502V273.976H338.287L338.279 82.8867Z" stroke="#263238" stroke-miterlimit="10"/>
<path d="M324.054 120.603C322.455 115.394 316.11 112.811 311.608 110.858C309.496 109.949 308.89 108.334 308.739 106.079C308.739 105.835 308.739 104.396 308.789 102.99H299.836C299.878 104.404 299.911 105.835 299.894 106.079C299.735 108.309 299.129 109.949 297.025 110.858C292.523 112.811 286.178 115.394 284.571 120.603C284.168 121.913 283.978 123.28 284.007 124.651H324.618C324.656 123.279 324.465 121.912 324.054 120.603Z" fill="#263238"/>
<path d="M304.919 59.8042H303.707V103.815H304.919V59.8042Z" fill="#263238"/>
<path d="M129.54 120.603C127.942 115.394 121.597 112.811 117.095 110.858C114.982 109.949 114.377 108.334 114.225 106.079C114.225 105.835 114.225 104.396 114.276 102.99H105.322C105.322 104.404 105.398 105.835 105.381 106.079C105.221 108.309 104.615 109.949 102.511 110.858C98.0092 112.811 91.6642 115.394 90.057 120.603C89.6543 121.913 89.464 123.28 89.4931 124.651H130.104C130.142 123.279 129.951 121.912 129.54 120.603Z" fill="#263238"/>
<path d="M110.405 59.8042H109.193V103.815H110.405V59.8042Z" fill="#263238"/>
<path d="M364.063 223.124C364.063 223.124 364.063 219.959 359.636 215.55C355.21 211.14 352.366 208.599 352.366 208.599C352.366 208.599 350.153 215.87 354.268 220.296C357.288 223.41 360.565 226.264 364.063 228.829V223.124Z" fill="#393184"/>
<path d="M357.642 242.891C357.642 242.891 357.642 239.735 353.216 235.317C348.789 230.899 345.945 228.358 345.945 228.358C345.945 228.358 343.732 235.629 347.839 240.055C350.863 243.164 354.143 246.016 357.642 248.579V242.891Z" fill="#393184"/>
<path d="M363.785 228.535C363.785 228.535 364.122 225.387 368.985 221.458C373.849 217.528 376.955 215.306 376.955 215.306C376.955 215.306 378.385 222.77 373.833 226.742C370.498 229.517 366.937 232.008 363.188 234.19L363.785 228.535Z" fill="#393184"/>
<path d="M356.027 251.853C356.027 251.853 356.692 248.756 361.917 245.356C367.143 241.957 370.484 240.08 370.484 240.08C370.484 240.08 371.123 247.654 366.184 251.121C362.574 253.532 358.768 255.638 354.807 257.415L356.027 251.853Z" fill="#393184"/>
<path d="M357.482 277.274C357.482 277.274 357.482 274.11 361.909 269.701C366.335 265.291 369.179 262.75 369.179 262.75C369.179 262.75 371.393 270.021 367.286 274.447C364.264 277.562 360.984 280.416 357.482 282.98V277.274Z" fill="#393184"/>
<path d="M357.415 283.477C357.415 283.477 357.861 280.346 354.107 275.339C350.354 270.332 347.897 267.421 347.897 267.421C347.897 267.421 344.674 274.304 348.116 279.269C350.668 282.781 353.508 286.075 356.607 289.115L357.415 283.477Z" fill="#393184"/>
<path d="M353.047 301.872C353.047 301.872 353.047 298.708 357.473 294.298C361.9 289.889 364.744 287.348 364.744 287.348C364.744 287.348 366.957 294.618 362.85 299.045C359.826 302.157 356.547 305.011 353.047 307.577V301.872Z" fill="#393184"/>
<path d="M356 318.542C356 318.542 355.201 315.487 358.365 310.085C361.529 304.682 363.633 301.51 363.633 301.51C363.633 301.51 367.613 307.989 364.76 313.291C362.627 317.07 360.177 320.662 357.439 324.028L356 318.542Z" fill="#393184"/>
<path d="M364.467 222.341C364.24 225.631 363.835 228.907 363.255 232.153C361.505 241.191 357.129 247.023 355.379 255.194C353.629 263.365 358.652 273.875 357.306 284.36C355.96 294.846 351.878 300.686 353.048 307.679C354.218 314.671 360.335 333.631 360.335 333.631" stroke="#263238" stroke-linecap="round" stroke-linejoin="round"/>
<path d="M363.742 230.638L368.514 226.978" stroke="#263238" stroke-linecap="round" stroke-linejoin="round"/>
<path d="M363.961 226.422L361.967 222.871" stroke="#263238" stroke-linecap="round" stroke-linejoin="round"/>
<path d="M355.648 254.815C355.648 254.815 359.637 251.819 363.744 248.823" stroke="#263238" stroke-linecap="round" stroke-linejoin="round"/>
<path d="M357.643 248.579C355.653 244.73 353.273 241.095 350.541 237.732" stroke="#263238" stroke-linecap="round" stroke-linejoin="round"/>
<path d="M357.641 281.768C359.919 277.567 362.796 273.721 366.182 270.349" stroke="#263238" stroke-linecap="round" stroke-linejoin="round"/>
<path d="M356.868 286.236C355.653 283.385 354.207 280.638 352.543 278.023C350.212 274.59 349.875 274.144 349.875 274.144" stroke="#263238" stroke-linecap="round" stroke-linejoin="round"/>
<path d="M353.047 307.678C354.057 305.167 355.259 302.736 356.64 300.408C358.026 298.251 359.585 296.21 361.302 294.307" stroke="#263238" stroke-linecap="round" stroke-linejoin="round"/>
<path d="M357.44 324.045C357.212 321.646 357.627 319.229 358.643 317.044C360.326 313.829 362.186 309.613 362.969 307.947" stroke="#263238" stroke-linecap="round" stroke-linejoin="round"/>
<path d="M327.944 265.384C327.944 265.384 327.599 263.398 329.896 260.141C332.194 256.885 333.7 254.991 333.7 254.991C333.7 254.991 335.88 259.317 333.784 262.565C332.221 264.842 330.474 266.987 328.558 268.977L327.944 265.384Z" fill="#393184"/>
<path d="M334.078 277.064C334.078 277.064 333.741 275.087 336.03 271.83C338.319 268.574 339.834 266.68 339.834 266.68C339.834 266.68 342.013 270.997 339.918 274.254C338.361 276.536 336.616 278.684 334.701 280.674L334.078 277.064Z" fill="#393184"/>
<path d="M328.702 268.733C328.702 268.733 328.155 266.798 324.671 264.854C321.188 262.91 319.008 261.867 319.008 261.867C319.008 261.867 318.924 266.705 322.206 268.7C324.602 270.075 327.107 271.252 329.695 272.217L328.702 268.733Z" fill="#393184"/>
<path d="M336.099 282.509C336.099 282.509 335.35 280.64 331.69 279.084C328.029 277.527 325.74 276.702 325.74 276.702C325.74 276.702 326.161 281.524 329.636 283.156C332.161 284.278 334.777 285.184 337.454 285.866L336.099 282.509Z" fill="#393184"/>
<path d="M337.95 298.607C337.95 298.607 337.605 296.629 334.348 294.332C331.091 292.034 329.03 290.764 329.03 290.764C329.03 290.764 328.432 295.56 331.487 297.891C333.723 299.516 336.09 300.952 338.564 302.183L337.95 298.607Z" fill="#393184"/>
<path d="M338.666 302.494C338.666 302.494 338.043 300.584 339.853 297.033C341.662 293.482 342.89 291.395 342.89 291.395C342.89 291.395 345.659 295.359 344.043 298.842C342.824 301.321 341.399 303.694 339.785 305.936L338.666 302.494Z" fill="#393184"/>
<path d="M344.22 318.483C344.22 318.483 344.455 316.489 347.586 314.006C350.716 311.524 352.694 310.144 352.694 310.144C352.694 310.144 353.535 314.898 350.64 317.397C348.503 319.147 346.223 320.714 343.824 322.085L344.22 318.483Z" fill="#393184"/>
<path d="M343.405 313.551C343.405 313.551 343.059 311.574 339.803 309.277C336.546 306.979 334.485 305.7 334.485 305.7C334.485 305.7 333.887 310.505 336.95 312.828C339.182 314.454 341.547 315.889 344.019 317.119L343.405 313.551Z" fill="#393184"/>
<path d="M343.335 324.332C343.335 324.332 343.511 322.32 340.936 319.283C338.361 316.245 336.729 314.478 336.729 314.478C336.729 314.478 334.936 318.971 337.301 322.001C339.052 324.137 340.977 326.124 343.057 327.942L343.335 324.332Z" fill="#393184"/>
<path d="M327.609 264.921C328.106 266.962 328.716 268.973 329.435 270.947C331.514 276.425 334.888 279.606 336.874 284.537C338.86 289.468 336.874 296.604 338.827 303.05C340.779 309.496 344.002 312.694 344.036 317.213C344.069 321.731 342.277 334.278 342.277 334.278" stroke="#263238" stroke-linecap="round" stroke-linejoin="round"/>
<path d="M328.962 270.046L325.57 268.262" stroke="#263238" stroke-linecap="round" stroke-linejoin="round"/>
<path d="M328.365 267.42L329.232 264.98" stroke="#263238" stroke-linecap="round" stroke-linejoin="round"/>
<path d="M336.664 284.326C336.664 284.326 333.837 282.887 330.934 281.448" stroke="#263238" stroke-linecap="round" stroke-linejoin="round"/>
<path d="M334.736 280.64C335.568 278.011 336.664 275.474 338.01 273.067" stroke="#263238" stroke-linecap="round" stroke-linejoin="round"/>
<path d="M338.338 301.451C336.453 299.061 334.23 296.958 331.74 295.207" stroke="#263238" stroke-linecap="round" stroke-linejoin="round"/>
<path d="M339.307 304.144C339.756 302.225 340.364 300.348 341.124 298.531C342.218 296.116 342.378 295.804 342.378 295.804" stroke="#263238" stroke-linecap="round" stroke-linejoin="round"/>
<path d="M343.875 320.621C344.975 319.256 346.194 317.991 347.519 316.842C348.36 316.219 349.151 315.53 349.883 314.781" stroke="#263238" stroke-linecap="round" stroke-linejoin="round"/>
<path d="M344.033 317.195C343.126 315.717 342.108 314.311 340.987 312.988C339.882 311.789 338.684 310.68 337.402 309.672" stroke="#263238" stroke-linecap="round" stroke-linejoin="round"/>
<path d="M343.051 327.942C342.936 326.411 342.416 324.938 341.544 323.675C340.148 321.841 338.507 319.4 337.842 318.441" stroke="#263238" stroke-linecap="round" stroke-linejoin="round"/>
<path d="M337.387 332.074H366.343V341.212C366.343 341.994 366.033 342.743 365.48 343.295C364.928 343.847 364.179 344.158 363.398 344.158H340.332C339.551 344.158 338.802 343.847 338.249 343.295C337.697 342.743 337.387 341.994 337.387 341.212V332.074Z" fill="white" stroke="#263238" stroke-linecap="round" stroke-linejoin="round"/>
<path d="M366.057 335.885H337.387C336.786 335.883 336.21 335.643 335.786 335.217C335.361 334.791 335.123 334.214 335.123 333.613C335.125 333.014 335.364 332.439 335.789 332.015C336.213 331.591 336.787 331.352 337.387 331.35H366.057C366.657 331.35 367.233 331.588 367.658 332.013C368.082 332.437 368.321 333.013 368.321 333.613C368.322 333.911 368.264 334.207 368.151 334.482C368.037 334.758 367.871 335.008 367.66 335.219C367.45 335.43 367.2 335.598 366.925 335.712C366.65 335.827 366.355 335.885 366.057 335.885Z" fill="white" stroke="#263238" stroke-linecap="round" stroke-linejoin="round"/>
<path d="M304.315 218.697C304.315 218.697 295.521 247.006 293.62 247.957C291.718 248.907 254.136 239.626 254.136 239.626C254.136 239.626 251.048 242.243 249.146 242.992C247.856 243.521 246.653 244.242 245.578 245.129C245.578 245.129 241.042 250.473 241.278 249.042C241.514 247.612 243.432 245.609 243.432 245.609C243.432 245.609 239.368 249.976 238.896 249.505C238.425 249.034 242.01 245.129 242.01 245.129C242.01 245.129 236.65 250.119 236.305 249.177C236.052 248.495 239.536 244.54 239.536 244.54C239.536 244.54 233.688 250.363 233.688 249.177C233.688 247.99 236.305 245.129 237.962 243.943C239.62 242.756 248.195 237.522 250.097 237.522C251.999 237.522 285.768 238.473 285.768 238.473L294.806 207.076" fill="white"/>
<path d="M304.315 218.697C304.315 218.697 295.521 247.006 293.62 247.957C291.718 248.907 254.136 239.626 254.136 239.626C254.136 239.626 251.048 242.243 249.146 242.992C247.856 243.521 246.653 244.242 245.578 245.129C245.578 245.129 241.042 250.473 241.278 249.042C241.514 247.612 243.432 245.609 243.432 245.609C243.432 245.609 239.368 249.976 238.896 249.505C238.425 249.034 242.01 245.129 242.01 245.129C242.01 245.129 236.65 250.119 236.305 249.177C236.052 248.495 239.536 244.54 239.536 244.54C239.536 244.54 233.688 250.363 233.688 249.177C233.688 247.99 236.305 245.129 237.962 243.943C239.62 242.756 248.195 237.522 250.097 237.522C251.999 237.522 285.768 238.473 285.768 238.473L294.806 207.076" stroke="#263238" stroke-linecap="round" stroke-linejoin="round"/>
<path d="M249.978 241.107C249.668 242.145 248.965 243.021 248.017 243.547C246.334 244.641 243.869 243.909 242.649 244.767C241.428 245.626 239.964 246.45 239.476 246.349C238.988 246.248 240.09 244.397 240.823 243.909C241.555 243.421 245.577 240.004 245.577 240.004" fill="white"/>
<path d="M249.978 241.107C249.668 242.145 248.965 243.021 248.017 243.547C246.334 244.641 243.869 243.909 242.649 244.767C241.428 245.626 239.964 246.45 239.476 246.349C238.988 246.248 240.09 244.397 240.823 243.909C241.555 243.421 245.577 240.004 245.577 240.004" stroke="#263238" stroke-linecap="round" stroke-linejoin="round"/>
<path d="M253.933 331.215C253.933 331.215 249.91 332.57 247.933 333.386C245.955 334.203 239.737 333.832 239.072 334.817C238.407 335.802 241.1 336.424 244.878 338.259C248.657 340.093 251.854 338.898 252.62 339.184C253.386 339.471 255.363 340.792 258.224 339.378C261.086 337.964 259.31 332.461 259.31 332.461L253.933 331.215Z" fill="#263238" stroke="#263238" stroke-linecap="round" stroke-linejoin="round"/>
<path d="M297.785 259.544C297.785 259.544 266.834 263.222 264.731 264.913C262.627 266.605 253.791 331.392 253.791 331.392L259.168 332.629L275.022 282.762C275.022 282.762 293.62 277.931 303.331 278.722C313.042 279.513 316.012 277.334 317.99 271.788C319.967 266.243 317.401 262.077 314.43 261.286" fill="#263238"/>
<path d="M297.785 259.544C297.785 259.544 266.834 263.222 264.731 264.913C262.627 266.605 253.791 331.392 253.791 331.392L259.168 332.629L275.022 282.762C275.022 282.762 293.62 277.931 303.331 278.722C313.042 279.513 316.012 277.334 317.99 271.788C319.967 266.243 317.401 262.077 314.43 261.286" stroke="#263238" stroke-linecap="round" stroke-linejoin="round"/>
<path d="M295.681 255.042C295.681 255.042 295.26 270.189 295.26 273.345C295.26 276.501 299.072 279.699 305.737 279.699C312.401 279.699 321.304 279.059 324.157 276.206C327.01 273.354 324.797 253.974 324.797 253.974L295.681 255.042Z" fill="#263238" stroke="#263238" stroke-linecap="round" stroke-linejoin="round"/>
<path d="M289.714 204.081C289.714 204.081 287.543 213.026 288.628 219.228C289.714 225.43 293.509 237.387 293.24 240.375C292.97 243.362 294.081 253.923 295.68 255.009C297.279 256.094 323.593 255.009 323.593 255.009C323.593 255.009 326.033 254.167 325.495 250.128C324.956 246.089 321.969 229.258 319.528 215.702C317.088 202.145 301.369 193.478 301.369 193.478L289.714 204.081Z" fill="#393184" stroke="#263238" stroke-linecap="round" stroke-linejoin="round"/>
<path d="M280.222 157.192C280.222 157.192 276.158 157.192 274.256 160.448C272.354 163.705 276.158 165.868 276.158 165.868C276.158 165.868 273.987 172.911 273.987 174.283C274.156 175.595 274.522 176.875 275.072 178.078L273.49 184.297L276.2 185.382C276.2 185.382 277.277 191.887 279.179 192.426C281.081 192.964 285.145 191.071 285.145 191.071L290.295 200.016L301.403 193.511L297.877 184.835C297.877 184.835 303.574 172.911 302.489 165.59C301.403 158.269 288.09 154.751 280.222 157.192Z" fill="white" stroke="#263238" stroke-linecap="round" stroke-linejoin="round"/>
<path d="M302.455 165.59C301.37 158.277 288.091 154.751 280.231 157.175C280.231 157.175 276.167 157.175 274.265 160.431C272.363 163.688 276.167 165.851 276.167 165.851C276.167 165.851 285.112 163.41 285.112 165.573C285.112 167.736 283.21 169.099 283.757 171.001C284.304 172.903 287.544 172.894 287.544 172.894L287.275 176.959L289.715 178.591C289.715 178.591 289.715 174.518 291.339 174.796C292.963 175.074 294.057 175.637 294.057 178.591C294.057 181.545 291.617 181.839 291.617 181.839C291.617 181.839 295.134 186.989 297.844 184.818C297.844 184.835 303.541 172.911 302.455 165.59Z" fill="#263238" stroke="#263238" stroke-linecap="round" stroke-linejoin="round"/>
<path d="M301.638 189.716L287.004 202.726L288.089 208.153L304.625 194.327L301.638 189.716Z" fill="white" stroke="#263238" stroke-linecap="round" stroke-linejoin="round"/>
<path d="M243.608 243.909C246.544 241.864 249.64 240.057 252.865 238.507C256.929 236.883 291.078 236.049 291.078 236.049L292.525 229.89L303.288 234.754C301.664 240.181 300.115 244.751 299.4 245.155C297.549 246.198 259.908 241.789 259.908 241.789C259.908 241.789 257.165 243.143 255.297 243.951C254.015 244.457 252.652 244.725 251.274 244.742C251.274 244.742 247.016 250.296 247.185 248.857C247.353 247.418 249.162 245.323 249.162 245.323C249.162 245.323 245.316 249.892 244.82 249.438C244.323 248.983 247.706 244.919 247.706 244.919C247.706 244.919 242.607 250.17 242.211 249.244C241.925 248.571 245.215 244.456 245.215 244.456C245.215 244.456 239.662 250.565 239.603 249.379C239.544 248.192 242.001 245.18 243.608 243.909Z" fill="white" stroke="#263238" stroke-linecap="round" stroke-linejoin="round"/>
<path d="M299.208 205.166C299.208 205.166 295.682 206.521 295.412 209.508C295.143 212.496 291.07 236.049 291.07 236.049L303.272 244.742L311.401 213.867" fill="#393184"/>
<path d="M299.208 205.166C299.208 205.166 295.682 206.521 295.412 209.508C295.143 212.496 291.07 236.049 291.07 236.049L303.272 244.742L311.401 213.867" stroke="#263238" stroke-linecap="round" stroke-linejoin="round"/>
<path d="M289.715 236.066C289.715 236.066 300.284 246.366 301.639 246.366C302.994 246.366 302.481 246.097 303.272 244.742C304.063 243.387 304.896 238.506 304.896 238.506L291.886 231.774C290.793 232.986 290.043 234.468 289.715 236.066Z" fill="white" stroke="#263238" stroke-linecap="round" stroke-linejoin="round"/>
<path d="M310.516 260.007C299.67 257.95 288.623 257.159 277.596 257.651C261.262 258.383 256.558 261.673 257.164 264.534C257.77 267.395 271.47 322.96 271.47 322.96L277.183 322.329L274.011 271.838C274.011 271.838 293.702 278.427 305.761 279.698C317.82 280.969 320.908 279.816 324.182 276.206" fill="#263238"/>
<path d="M310.516 260.007C299.67 257.95 288.623 257.159 277.596 257.651C261.262 258.383 256.558 261.673 257.164 264.534C257.77 267.395 271.47 322.96 271.47 322.96L277.183 322.329L274.011 271.838C274.011 271.838 293.702 278.427 305.761 279.698C317.82 280.969 320.908 279.816 324.182 276.206" stroke="#263238" stroke-linecap="round" stroke-linejoin="round"/>
<path d="M271.445 322.96C271.445 322.96 268.92 325.215 267.633 326.604C266.345 327.992 258.182 332.713 257.492 333.546C256.802 334.379 259.016 335.499 260.858 335.499C262.701 335.499 273.919 332.579 276.696 332.133C279.473 331.687 279.759 330.744 279.893 329.49C280.028 328.236 277.192 322.304 277.192 322.304L271.445 322.96Z" fill="#263238" stroke="#263238" stroke-linecap="round" stroke-linejoin="round"/>
<path d="M302.758 305.734H311.652V280.969H302.758V305.734Z" fill="#263238"/>
<path d="M304.988 324.155H309.432V299.39H304.988V324.155Z" fill="#263238"/>
<path d="M308.043 282.223C313.875 282.223 318.714 282.181 320.026 282.071C324.158 281.726 326.001 280.338 326.203 280.178C328.955 277.738 329.056 272.377 329.308 259.443C329.376 255.943 329.451 251.971 329.594 247.351C330.217 226.877 337.69 206.403 337.765 206.201C337.838 206.023 337.874 205.832 337.871 205.64C337.869 205.448 337.827 205.258 337.75 205.083C337.672 204.907 337.56 204.748 337.419 204.617C337.279 204.486 337.114 204.384 336.934 204.317C336.753 204.251 336.561 204.222 336.369 204.232C336.177 204.241 335.989 204.29 335.816 204.374C335.643 204.457 335.489 204.575 335.363 204.72C335.237 204.865 335.141 205.034 335.081 205.217C335.005 205.419 327.373 226.313 326.742 247.292C326.599 251.929 326.523 255.901 326.456 259.41C326.237 270.349 326.119 276.349 324.402 277.973C322.992 278.767 321.409 279.206 319.791 279.252C316.088 279.555 281.528 279.252 281.183 279.252C280.803 279.252 280.439 279.403 280.171 279.671C279.903 279.94 279.752 280.304 279.752 280.683C279.752 281.062 279.903 281.426 280.171 281.695C280.439 281.963 280.803 282.114 281.183 282.114C282.091 282.088 296.893 282.223 308.043 282.223Z" fill="#263238"/>
<path d="M309.02 322.245C309.02 322.245 312.757 326.453 322.358 327.967C327.407 328.742 332.709 329.718 337.287 332.175C340.24 333.732 346.106 337.148 346.106 341.053C346.062 341.95 345.674 342.797 345.023 343.416C344.372 344.036 343.508 344.382 342.609 344.382C341.71 344.382 340.846 344.036 340.195 343.416C339.544 342.797 339.157 341.95 339.113 341.053C339.112 340.166 339.452 339.313 340.064 338.671C337.663 335.064 333.944 332.542 329.705 331.645C322.4 330.054 317.082 330.702 306.799 323.869L309.02 322.245Z" fill="#263238"/>
<path d="M305.839 322.245C305.839 322.245 302.103 326.453 292.501 327.967C287.452 328.742 282.151 329.718 277.565 332.175C274.619 333.732 268.754 337.148 268.754 341.053C268.75 341.626 268.886 342.191 269.151 342.698C269.416 343.206 269.802 343.641 270.274 343.965C270.746 344.289 271.291 344.493 271.86 344.557C272.429 344.622 273.005 344.546 273.538 344.336C274.071 344.126 274.544 343.788 274.916 343.352C275.288 342.917 275.548 342.397 275.672 341.838C275.796 341.278 275.781 340.697 275.629 340.145C275.476 339.593 275.19 339.087 274.796 338.671C277.197 335.064 280.916 332.542 285.155 331.645C292.459 330.054 297.778 330.702 308.061 323.869L305.839 322.245Z" fill="#263238"/>
<path d="M305.912 344.511H308.816C309.122 344.511 309.371 344.263 309.371 343.956V338.503C309.371 338.196 309.122 337.947 308.816 337.947H305.912C305.606 337.947 305.357 338.196 305.357 338.503V343.956C305.357 344.263 305.606 344.511 305.912 344.511Z" fill="#263238"/>
<path d="M306.418 344.511H308.32V322.842H306.418V344.511Z" fill="#263238"/>
<path d="M139.884 168.098C139.9 169.524 139.824 170.949 139.657 172.364C139.429 173.265 137.856 174.611 138.31 175.731C138.765 176.85 139.657 180.005 139.657 180.005L136.964 180.451C136.964 180.451 133.817 186.291 131.797 186.965C129.777 187.638 120.79 182.732 120.79 182.732L117.87 195.986L110.902 189.464C110.902 189.464 113.822 181.377 114.05 179.366C114.277 177.355 114.496 162.973 116.524 158.707C118.552 154.44 122.81 151.293 130.223 152.194C137.637 153.094 142.804 159.784 139.884 168.098Z" fill="white" stroke="#263238" stroke-linecap="round" stroke-linejoin="round"/>
<path d="M127.748 167.197L122.135 193.478L103.715 182.025C103.715 182.025 113.375 164.723 115.395 159.304C117.415 153.885 121.689 149.644 129.095 150.544C136.5 151.444 140.783 157.73 141.902 161.096C143.022 164.462 141.002 168.965 141.002 168.965L127.748 167.197Z" fill="#263238" stroke="#263238" stroke-linecap="round" stroke-linejoin="round"/>
<path d="M119.973 259.687C119.973 259.687 160.306 258.105 163.159 261.917C166.011 265.729 170.463 319.072 174.334 328.026C176.278 332.52 190.474 327.967 189.203 330.5C187.933 333.033 183.17 336.222 180.309 336.853C177.448 337.485 175.546 339.075 172.054 340.034C168.561 340.994 167.291 337.173 167.61 334.985C167.738 332.969 167.636 330.945 167.307 328.952C167.307 328.952 165.515 318.357 163.798 313.392C153.162 282.585 155.223 273.379 155.223 273.379C155.223 273.379 135.869 280.363 119.973 279.732" fill="white"/>
<path d="M119.973 259.687C119.973 259.687 160.306 258.105 163.159 261.917C166.011 265.729 170.463 319.072 174.334 328.026C176.278 332.52 190.474 327.967 189.203 330.5C187.933 333.033 183.17 336.222 180.309 336.853C177.448 337.485 175.546 339.075 172.054 340.034C168.561 340.994 167.291 337.173 167.61 334.985C167.738 332.969 167.636 330.945 167.307 328.952C167.307 328.952 165.515 318.357 163.798 313.392C153.162 282.585 155.223 273.379 155.223 273.379C155.223 273.379 135.869 280.363 119.973 279.732" stroke="#263238" stroke-linecap="round" stroke-linejoin="round"/>
<path d="M189.204 330.5C189.945 329.019 185.392 329.961 181.1 330.096L181.9 332.73C181.9 332.73 177.448 334.152 173.796 335.111C171.751 335.549 169.648 335.654 167.569 335.423C167.476 337.67 168.798 340.918 172.054 340.034C175.546 339.075 177.448 337.51 180.309 336.853C183.171 336.197 187.933 333.041 189.204 330.5Z" fill="#263238" stroke="#263238" stroke-linecap="round" stroke-linejoin="round"/>
<path d="M102.764 218.698C102.764 218.698 111.566 247.006 113.468 247.957C115.369 248.908 152.943 239.626 152.943 239.626C152.943 239.626 156.039 242.243 157.941 242.992C159.231 243.521 160.434 244.242 161.509 245.13C161.509 245.13 166.037 250.473 165.801 249.043C165.565 247.612 163.647 245.609 163.647 245.609C163.647 245.609 167.711 249.977 168.191 249.505C168.67 249.034 165.077 245.13 165.077 245.13C165.077 245.13 170.438 250.12 170.783 249.177C171.035 248.496 167.543 244.541 167.543 244.541C167.543 244.541 173.433 250.364 173.433 249.177C173.433 247.991 170.825 245.096 169.142 243.909C167.459 242.723 158.917 237.489 157.016 237.489C155.114 237.489 121.336 238.44 121.336 238.44L112.306 207.043" fill="white"/>
<path d="M102.764 218.698C102.764 218.698 111.566 247.006 113.468 247.957C115.369 248.908 152.943 239.626 152.943 239.626C152.943 239.626 156.039 242.243 157.941 242.992C159.231 243.521 160.434 244.242 161.509 245.13C161.509 245.13 166.037 250.473 165.801 249.043C165.565 247.612 163.647 245.609 163.647 245.609C163.647 245.609 167.711 249.977 168.191 249.505C168.67 249.034 165.077 245.13 165.077 245.13C165.077 245.13 170.438 250.12 170.783 249.177C171.035 248.496 167.543 244.541 167.543 244.541C167.543 244.541 173.433 250.364 173.433 249.177C173.433 247.991 170.825 245.096 169.142 243.909C167.459 242.723 158.917 237.489 157.016 237.489C155.114 237.489 121.336 238.44 121.336 238.44L112.306 207.043" stroke="#263238" stroke-linecap="round" stroke-linejoin="round"/>
<path d="M157.109 241.107C157.417 242.144 158.118 243.019 159.062 243.547C160.745 244.641 163.21 243.909 164.43 244.767C165.651 245.626 167.115 246.45 167.603 246.349C168.091 246.248 166.997 244.397 166.265 243.909C165.533 243.421 161.502 240.004 161.502 240.004" fill="white"/>
<path d="M157.109 241.107C157.417 242.144 158.118 243.019 159.062 243.547C160.745 244.641 163.21 243.909 164.43 244.767C165.651 245.626 167.115 246.45 167.603 246.349C168.091 246.248 166.997 244.397 166.265 243.909C165.533 243.421 161.502 240.004 161.502 240.004" stroke="#263238" stroke-linecap="round" stroke-linejoin="round"/>
<path d="M111.569 186.594C111.569 186.594 119.412 192.299 120.825 197.298C122.239 202.296 127.726 218.941 126.295 222.03C124.865 225.118 118.208 233.449 117.737 234.156C117.266 234.863 123.442 264.837 123.914 268.657C124.385 272.478 122.231 277.224 116.786 279.126C111.341 281.028 99.897 282.214 94.9069 276.029C89.9167 269.844 90.1187 262.245 96.3374 247.022C98.1467 242.588 99.4258 238.456 99.4258 238.456C99.4258 238.456 96.8087 216.577 98.2392 207.539C99.6698 198.501 111.569 186.594 111.569 186.594Z" fill="#393184" stroke="#263238" stroke-linecap="round" stroke-linejoin="round"/>
<path d="M105.686 258.106C105.686 258.106 157.792 256.423 162.555 258.998C167.318 261.573 146.97 332.091 146.97 332.091C146.97 332.091 148.922 335.028 150.715 337.376C152.149 339.251 153.805 340.947 155.646 342.425C156.201 342.761 157.775 342.988 157.211 343.771C156.647 344.554 153.744 343.88 150.942 343.662C148.14 343.443 145.455 342.206 145.001 341.415C144.546 340.624 141.98 337.502 140.97 337.047C139.96 336.593 138.286 335.255 139.068 333.799C139.851 332.343 142.316 330.105 142.434 329.322C142.552 328.54 145.8 308.638 146.154 304.279C148.005 278.765 149.52 272.47 149.52 272.47C149.52 272.47 123.433 283.511 106.603 280.372" fill="#393184"/>
<path d="M105.686 258.106C105.686 258.106 157.792 256.423 162.555 258.998C167.318 261.573 146.97 332.091 146.97 332.091C146.97 332.091 148.922 335.028 150.715 337.376C152.149 339.251 153.805 340.947 155.646 342.425C156.201 342.761 157.775 342.988 157.211 343.771C156.647 344.554 153.744 343.88 150.942 343.662C148.14 343.443 145.455 342.206 145.001 341.415C144.546 340.624 141.98 337.502 140.97 337.047C139.96 336.593 138.286 335.255 139.068 333.799C139.851 332.343 142.316 330.105 142.434 329.322C142.552 328.54 145.8 308.638 146.154 304.279C148.005 278.765 149.52 272.47 149.52 272.47C149.52 272.47 123.433 283.511 106.603 280.372" stroke="#263238" stroke-linecap="round" stroke-linejoin="round"/>
<path d="M162.553 258.997C160.399 257.844 148.534 257.558 136.197 257.584L136.424 276.997C140.85 275.711 145.207 274.198 149.476 272.461C149.476 272.461 147.995 278.756 146.11 304.27C145.79 308.629 142.5 328.531 142.391 329.314C142.281 330.096 139.816 332.335 139.025 333.79C138.234 335.246 139.917 336.593 140.927 337.039C141.936 337.485 144.511 340.623 144.957 341.406C145.403 342.189 148.096 343.426 150.898 343.653C153.701 343.88 156.612 344.545 157.168 343.762C157.723 342.98 156.158 342.752 155.602 342.416C153.761 340.938 152.105 339.242 150.671 337.367C148.879 335.019 146.926 332.082 146.926 332.082C146.926 332.082 167.316 261.539 162.553 258.997Z" fill="white" stroke="#263238" stroke-linecap="round" stroke-linejoin="round"/>
<path d="M155.679 342.416C154.854 341.791 154.083 341.098 153.373 340.346H147.6L141.322 330.929C140.485 331.813 139.731 332.77 139.067 333.79C138.285 335.246 139.959 336.593 140.969 337.039C141.979 337.485 144.554 340.623 145 341.406C145.446 342.189 148.139 343.426 150.941 343.653C153.743 343.88 156.655 344.545 157.21 343.762C157.765 342.98 156.2 342.752 155.679 342.416Z" fill="#263238" stroke="#263238" stroke-linecap="round" stroke-linejoin="round"/>
<path d="M103.885 215.651C103.885 215.651 115.918 242.74 117.921 243.421C119.924 244.103 156.159 230.555 156.159 230.555C156.159 230.555 159.525 232.793 161.511 233.281C162.853 233.649 164.132 234.217 165.306 234.964C165.306 234.964 170.423 239.744 170.027 238.33C169.632 236.916 167.503 235.174 167.503 235.174C167.503 235.174 172.047 239.037 172.468 238.54C172.888 238.044 168.866 234.56 168.866 234.56C168.866 234.56 174.756 238.894 175.001 237.926C175.177 237.219 171.247 233.719 171.247 233.719C171.247 233.719 177.744 238.818 177.601 237.64C177.458 236.462 174.529 233.929 172.737 232.944C170.944 231.96 161.797 227.752 159.946 227.98C158.095 228.207 124.603 233.079 124.603 233.079L111.98 202.953" fill="#393184"/>
<path d="M103.885 215.651C103.885 215.651 115.918 242.74 117.921 243.421C119.924 244.103 156.159 230.555 156.159 230.555C156.159 230.555 159.525 232.793 161.511 233.281C162.853 233.649 164.132 234.217 165.306 234.964C165.306 234.964 170.423 239.744 170.027 238.33C169.632 236.916 167.503 235.174 167.503 235.174C167.503 235.174 172.047 239.037 172.468 238.54C172.888 238.044 168.866 234.56 168.866 234.56C168.866 234.56 174.756 238.894 175.001 237.926C175.177 237.219 171.247 233.719 171.247 233.719C171.247 233.719 177.744 238.818 177.601 237.64C177.458 236.462 174.529 233.929 172.737 232.944C170.944 231.96 161.797 227.752 159.946 227.98C158.095 228.207 124.603 233.079 124.603 233.079L111.98 202.953" stroke="#263238" stroke-linecap="round" stroke-linejoin="round"/>
<path d="M172.719 232.961C170.926 231.968 161.779 227.769 159.928 227.996C158.076 228.223 124.584 233.096 124.584 233.096L122.136 227.264L112.332 233.845C114.857 238.936 117.12 243.177 117.894 243.455C119.897 244.178 156.132 230.588 156.132 230.588C156.132 230.588 159.498 232.826 161.484 233.315C162.826 233.683 164.106 234.25 165.28 234.998C165.28 234.998 170.396 239.777 170.001 238.364C169.605 236.95 167.476 235.208 167.476 235.208C167.476 235.208 172.02 239.07 172.441 238.574C172.862 238.077 168.839 234.594 168.839 234.594C168.839 234.594 174.73 238.927 174.974 237.96C175.151 237.253 171.221 233.752 171.221 233.752C171.221 233.752 177.717 238.852 177.574 237.674C177.431 236.495 174.511 233.946 172.719 232.961Z" fill="white" stroke="#263238" stroke-linecap="round" stroke-linejoin="round"/>
<path d="M116.488 280.969H107.594V305.734H116.488V280.969Z" fill="#263238"/>
<path d="M114.26 299.381H109.816V324.147H114.26V299.381Z" fill="#263238"/>
<path d="M111.205 282.223C105.365 282.223 100.535 282.181 99.2137 282.071C95.0903 281.726 93.239 280.338 93.0455 280.178C90.2937 277.737 90.1928 272.377 89.9403 259.443C89.8646 255.942 89.7888 251.971 89.6542 247.351C89.0315 226.877 81.5589 206.403 81.4832 206.201C81.4173 206.025 81.3868 205.838 81.3935 205.651C81.4002 205.463 81.4439 205.279 81.5221 205.109C81.6003 204.938 81.7115 204.785 81.8492 204.657C81.987 204.53 82.1486 204.431 82.3247 204.366C82.6809 204.238 83.0734 204.254 83.4179 204.411C83.7624 204.568 84.0316 204.854 84.1676 205.208C84.2433 205.41 91.8758 226.305 92.5069 247.283C92.65 251.92 92.7257 255.892 92.793 259.401C93.0034 270.341 93.1212 276.341 94.8379 277.965C96.2528 278.756 97.8375 279.194 99.4578 279.244C103.16 279.547 137.713 279.244 138.066 279.244C138.446 279.244 138.809 279.394 139.078 279.663C139.346 279.931 139.497 280.295 139.497 280.674C139.497 281.054 139.346 281.418 139.078 281.686C138.809 281.954 138.446 282.105 138.066 282.105C137.166 282.088 122.355 282.223 111.205 282.223Z" fill="#263238"/>
<path d="M110.238 322.245C110.238 322.245 106.501 326.453 96.8998 327.967C91.8507 328.742 86.5492 329.718 81.963 332.175C79.0177 333.732 73.1524 337.148 73.1524 341.053C73.1482 341.626 73.2845 342.191 73.5496 342.698C73.8146 343.206 74.2001 343.641 74.6724 343.965C75.1447 344.289 75.6893 344.493 76.2584 344.557C76.8275 344.622 77.4038 344.546 77.9367 344.336C78.4696 344.126 78.9428 343.788 79.3148 343.352C79.6868 342.917 79.9463 342.397 80.0704 341.838C80.1946 341.278 80.1797 340.697 80.0269 340.145C79.8742 339.593 79.5884 339.087 79.1945 338.671C81.5952 335.064 85.3142 332.542 89.5534 331.645C96.8577 330.054 102.176 330.702 112.459 323.869L110.238 322.245Z" fill="#263238"/>
<path d="M113.41 322.245C113.41 322.245 117.138 326.452 126.748 327.967C131.797 328.741 137.098 329.717 141.676 332.174C144.63 333.731 150.495 337.148 150.495 341.052C150.451 341.95 150.063 342.796 149.412 343.416C148.761 344.036 147.897 344.381 146.998 344.381C146.1 344.381 145.235 344.036 144.585 343.416C143.934 342.796 143.546 341.95 143.502 341.052C143.501 340.166 143.842 339.313 144.453 338.671C142.052 335.064 138.333 332.541 134.094 331.644C126.79 330.054 121.471 330.702 111.18 323.869L113.41 322.245Z" fill="#263238"/>
<path d="M113.326 337.956H110.423C110.116 337.956 109.867 338.205 109.867 338.511V343.964C109.867 344.271 110.116 344.52 110.423 344.52H113.326C113.633 344.52 113.881 344.271 113.881 343.964V338.511C113.881 338.205 113.633 337.956 113.326 337.956Z" fill="#263238"/>
<path d="M112.83 322.842H110.928V344.511H112.83V322.842Z" fill="#263238"/>
<path d="M182.852 249.867H157.127V251.138H182.852V249.867Z" fill="white" stroke="#263238" stroke-linecap="round" stroke-linejoin="round"/>
<path d="M194.514 193.646L197.628 198.619L193.345 235.637L190.004 235.25L194.514 193.646Z" fill="#263238" stroke="#263238" stroke-linecap="round" stroke-linejoin="round"/>
<path d="M195.418 188.526L192.994 188.245L187.474 235.883L189.898 236.164L195.418 188.526Z" fill="white" stroke="#263238" stroke-linecap="round" stroke-linejoin="round"/>
<path d="M194.573 225.018L193.184 249.455H185.24V251.348H193.184H195.019V249.455L196.39 225.228L194.573 225.018Z" fill="white" stroke="#263238" stroke-linecap="round" stroke-linejoin="round"/>
<path d="M240.183 251.138H265.908V249.867H240.183V251.138Z" fill="white" stroke="#263238" stroke-linecap="round" stroke-linejoin="round"/>
<path d="M228.512 193.646L225.398 198.619L229.69 235.637L233.031 235.25L228.512 193.646Z" fill="#263238" stroke="#263238" stroke-linecap="round" stroke-linejoin="round"/>
<path d="M233.144 236.163L235.568 235.882L230.048 188.243L227.624 188.524L233.144 236.163Z" fill="white" stroke="#263238" stroke-linecap="round" stroke-linejoin="round"/>
<path d="M228.462 225.018L229.851 249.455H237.786V251.348H229.851H228.016V249.455L226.645 225.228L228.462 225.018Z" fill="white" stroke="#263238" stroke-linecap="round" stroke-linejoin="round"/>
<path d="M160.375 252.627L210.175 333.218L268.828 252.627" stroke="#263238" stroke-width="3" stroke-linecap="round" stroke-linejoin="round"/>
<path d="M275.888 251.121H153.314V253.662H275.888V251.121Z" fill="white" stroke="#263238" stroke-linecap="round" stroke-linejoin="round"/>
<path d="M216.571 206.908H203.746V340.666H216.571V206.908Z" fill="#263238" stroke="#263238" stroke-linecap="round" stroke-linejoin="round"/>
<path d="M176.935 268.986H173.594V291.025H176.935V268.986Z" fill="white" stroke="#263238" stroke-linecap="round" stroke-linejoin="round"/>
<path d="M176.935 293.987H173.594V316.026H176.935V293.987Z" fill="white" stroke="#263238" stroke-linecap="round" stroke-linejoin="round"/>
<path d="M176.935 318.997H173.594V341.036H176.935V318.997Z" fill="white" stroke="#263238" stroke-linecap="round" stroke-linejoin="round"/>
<path d="M245.409 265.721H175.547V344.158H245.409V265.721Z" fill="#263238" stroke="#263238" stroke-linecap="round" stroke-linejoin="round"/>
<path d="M40.9902 344.158H393.826" stroke="#263238" stroke-linecap="round" stroke-linejoin="round"/>
</svg>
